<?xml version="1.0" encoding="UTF-8" standalone="no"?><!DOCTYPE svg PUBLIC "-//W3C//DTD SVG 1.1//EN" "http://www.w3.org/Graphics/SVG/1.1/DTD/svg11.dtd"><svg width="100%" height="100%" viewBox="0 0 100 100" version="1.1" xmlns="http://www.w3.org/2000/svg" xmlns:xlink="http://www.w3.org/1999/xlink" xml:space="preserve" xmlns:serif="http://www.serif.com/" style="fill-rule:evenodd;clip-rule:evenodd;stroke-linejoin:round;stroke-miterlimit:2;"><rect id="Logo" x="0" y="0" width="100" height="100" style="fill:none;"/><path d="M33.638,25.238c-0.258,-0.027 -0.519,-0.04 -0.784,-0.04c-9.446,-0 -17.115,7.669 -17.115,17.115c-0,17.932 14.558,32.49 32.49,32.49c15.243,0 29.862,-6.055 40.641,-16.834l11.129,11.129c-13.73,13.73 -32.353,21.444 -51.77,21.444c-26.619,0 -48.23,-21.611 -48.23,-48.23c-0,-18.133 14.722,-32.854 32.854,-32.854c12.829,-0 23.245,10.416 23.245,23.245c0,9.647 -7.832,17.479 -17.479,17.479c-7.526,0 -13.635,-6.11 -13.635,-13.635c0,-5.406 3.67,-9.962 8.653,-11.309Z"/></svg>