<?xml version="1.0" encoding="UTF-8" standalone="no"?><!DOCTYPE svg PUBLIC "-//W3C//DTD SVG 1.1//EN" "http://www.w3.org/Graphics/SVG/1.1/DTD/svg11.dtd"><svg width="100%" height="100%" viewBox="0 0 713 100" version="1.1" xmlns="http://www.w3.org/2000/svg" xmlns:xlink="http://www.w3.org/1999/xlink" xml:space="preserve" xmlns:serif="http://www.serif.com/" style="fill-rule:evenodd;clip-rule:evenodd;stroke-linejoin:round;stroke-miterlimit:2;"><rect id="Logo" x="0" y="0" width="713" height="100" style="fill:none;"/><path d="M23.547,32.666c-0.18,-0.019 -0.363,-0.028 -0.549,-0.028c-6.612,-0 -11.981,5.368 -11.981,11.981c-0,12.552 10.191,22.743 22.743,22.743c10.67,0 20.904,-4.239 28.449,-11.784l7.791,7.791c-9.611,9.611 -22.647,15.011 -36.239,15.011c-18.633,0 -33.761,-15.128 -33.761,-33.761c0,-12.693 10.305,-22.998 22.998,-22.998c8.98,0 16.271,7.291 16.271,16.271c0,6.753 -5.482,12.235 -12.235,12.235c-5.268,0 -9.545,-4.277 -9.545,-9.545c0,-3.784 2.569,-6.973 6.057,-7.916Z"/><g transform="matrix(72,0,0,72,75,75.56)"><path d="M0.375,0.016c-0.065,0 -0.123,-0.015 -0.173,-0.044c-0.05,-0.029 -0.09,-0.072 -0.118,-0.127c-0.028,-0.055 -0.043,-0.121 -0.043,-0.199c0,-0.075 0.014,-0.141 0.041,-0.197c0.027,-0.056 0.066,-0.099 0.117,-0.129c0.05,-0.031 0.11,-0.046 0.178,-0.046c0.093,0 0.165,0.023 0.217,0.069c0.052,0.046 0.085,0.111 0.1,0.195l-0.158,0.007c-0.008,-0.045 -0.025,-0.08 -0.052,-0.105c-0.027,-0.025 -0.062,-0.038 -0.106,-0.038c-0.038,0 -0.07,0.01 -0.097,0.03c-0.027,0.02 -0.047,0.049 -0.061,0.085c-0.014,0.037 -0.021,0.079 -0.021,0.129c0,0.05 0.007,0.093 0.022,0.129c0.015,0.036 0.035,0.064 0.062,0.084c0.027,0.019 0.058,0.029 0.094,0.029c0.048,0 0.085,-0.014 0.112,-0.041c0.026,-0.027 0.043,-0.065 0.05,-0.113l0.159,0.007c-0.009,0.058 -0.028,0.107 -0.055,0.148c-0.027,0.041 -0.063,0.072 -0.108,0.094c-0.044,0.022 -0.097,0.033 -0.159,0.033Z" style="fill-rule:nonzero;"/></g><g transform="matrix(72,0,0,72,127.214309,75.56)"><path d="M0.225,0.012c-0.056,0 -0.101,-0.013 -0.136,-0.039c-0.035,-0.026 -0.052,-0.062 -0.052,-0.108c0,-0.047 0.015,-0.083 0.045,-0.109c0.03,-0.026 0.074,-0.045 0.132,-0.056l0.172,-0.034c0,-0.035 -0.008,-0.061 -0.023,-0.078c-0.016,-0.018 -0.038,-0.026 -0.068,-0.026c-0.028,0 -0.05,0.007 -0.066,0.02c-0.016,0.013 -0.027,0.032 -0.032,0.057l-0.151,-0.006c0.01,-0.059 0.037,-0.104 0.08,-0.134c0.043,-0.03 0.099,-0.045 0.169,-0.045c0.08,0 0.14,0.019 0.181,0.057c0.04,0.038 0.061,0.094 0.061,0.167l0,0.182c0,0.015 0.003,0.025 0.008,0.031c0.005,0.005 0.013,0.008 0.023,0.008l0.015,0l0,0.103c-0.005,0.001 -0.012,0.003 -0.023,0.004c-0.01,0.001 -0.021,0.002 -0.031,0.002c-0.021,-0 -0.041,-0.004 -0.059,-0.011c-0.018,-0.007 -0.033,-0.02 -0.044,-0.038c-0.011,-0.018 -0.017,-0.043 -0.017,-0.076l0.012,0.01c-0.006,0.024 -0.018,0.045 -0.035,0.063c-0.017,0.018 -0.039,0.032 -0.066,0.042c-0.027,0.01 -0.058,0.015 -0.093,0.015Zm0.036,-0.103c0.025,0 0.047,-0.005 0.065,-0.015c0.019,-0.01 0.033,-0.024 0.044,-0.043c0.011,-0.018 0.016,-0.041 0.016,-0.066l0,-0.026l-0.122,0.026c-0.024,0.005 -0.043,0.013 -0.055,0.024c-0.012,0.011 -0.018,0.025 -0.018,0.042c0,0.018 0.006,0.032 0.018,0.043c0.012,0.01 0.029,0.015 0.052,0.015Z" style="fill-rule:nonzero;"/></g><g transform="matrix(72,0,0,72,169.276582,75.56)"><path d="M0.257,0.012c-0.045,0 -0.084,-0.011 -0.117,-0.034c-0.033,-0.023 -0.058,-0.055 -0.076,-0.097c-0.018,-0.042 -0.027,-0.091 -0.027,-0.149c0,-0.057 0.009,-0.107 0.027,-0.148c0.018,-0.042 0.044,-0.074 0.077,-0.097c0.033,-0.023 0.072,-0.034 0.116,-0.034c0.038,0 0.071,0.008 0.099,0.023c0.028,0.016 0.049,0.037 0.063,0.065l0,-0.25l0.15,0l0,0.71l-0.144,-0l-0.003,-0.079c-0.015,0.029 -0.036,0.051 -0.066,0.067c-0.029,0.016 -0.062,0.024 -0.099,0.024Zm0.049,-0.115c0.024,0 0.045,-0.006 0.061,-0.019c0.017,-0.012 0.029,-0.031 0.038,-0.055c0.009,-0.024 0.013,-0.055 0.013,-0.091c0,-0.037 -0.004,-0.067 -0.013,-0.091c-0.009,-0.024 -0.021,-0.043 -0.038,-0.055c-0.017,-0.012 -0.037,-0.018 -0.061,-0.018c-0.035,0 -0.063,0.015 -0.084,0.044c-0.021,0.029 -0.031,0.07 -0.031,0.12c0,0.05 0.01,0.09 0.031,0.12c0.021,0.03 0.049,0.045 0.083,0.045Z" style="fill-rule:nonzero;"/></g><g transform="matrix(72,0,0,72,214.204468,75.56)"><path d="M0.307,0.012c-0.055,0 -0.102,-0.012 -0.143,-0.035c-0.041,-0.023 -0.072,-0.056 -0.094,-0.098c-0.022,-0.042 -0.033,-0.091 -0.033,-0.148c0,-0.056 0.011,-0.105 0.033,-0.147c0.022,-0.042 0.054,-0.074 0.094,-0.098c0.04,-0.023 0.088,-0.035 0.142,-0.035c0.053,0 0.1,0.012 0.139,0.035c0.04,0.023 0.07,0.057 0.092,0.1c0.021,0.043 0.032,0.095 0.032,0.155l0,0.03l-0.377,0c0.002,0.042 0.014,0.074 0.035,0.095c0.021,0.021 0.049,0.031 0.083,0.031c0.025,0 0.047,-0.005 0.064,-0.016c0.017,-0.011 0.029,-0.027 0.036,-0.049l0.151,0.009c-0.014,0.054 -0.044,0.096 -0.089,0.126c-0.045,0.03 -0.1,0.045 -0.164,0.045Zm-0.115,-0.332l0.223,0c-0.002,-0.039 -0.013,-0.069 -0.033,-0.088c-0.02,-0.019 -0.045,-0.029 -0.077,-0.029c-0.031,0 -0.057,0.01 -0.077,0.031c-0.02,0.02 -0.033,0.049 -0.037,0.087Z" style="fill-rule:nonzero;"/></g><g transform="matrix(72,0,0,72,257.073138,75.56)"><path d="M0.066,-0l0,-0.536l0.135,0l0.006,0.157l-0.018,-0.005c0.005,-0.04 0.016,-0.072 0.032,-0.096c0.016,-0.024 0.037,-0.041 0.061,-0.052c0.024,-0.011 0.051,-0.016 0.081,-0.016c0.039,0 0.072,0.008 0.099,0.025c0.027,0.017 0.048,0.04 0.062,0.071c0.014,0.03 0.022,0.066 0.022,0.107l0,0.345l-0.15,-0l0,-0.295c0,-0.029 -0.002,-0.053 -0.007,-0.073c-0.005,-0.02 -0.013,-0.035 -0.025,-0.046c-0.012,-0.01 -0.029,-0.016 -0.05,-0.016c-0.031,0 -0.055,0.012 -0.072,0.035c-0.017,0.023 -0.025,0.056 -0.025,0.1l0,0.295l-0.15,-0Z" style="fill-rule:nonzero;"/></g><g transform="matrix(72,0,0,72,300.12905,75.56)"><path d="M0.309,0.012c-0.055,0 -0.103,-0.012 -0.144,-0.035c-0.041,-0.023 -0.072,-0.056 -0.095,-0.098c-0.023,-0.042 -0.034,-0.091 -0.034,-0.148c0,-0.056 0.011,-0.105 0.034,-0.147c0.023,-0.042 0.054,-0.074 0.095,-0.098c0.041,-0.023 0.089,-0.035 0.144,-0.035c0.047,0 0.09,0.008 0.127,0.025c0.037,0.017 0.068,0.041 0.091,0.072c0.023,0.031 0.038,0.069 0.043,0.113l-0.155,0.007c-0.005,-0.033 -0.017,-0.058 -0.036,-0.076c-0.019,-0.017 -0.043,-0.025 -0.071,-0.025c-0.037,0 -0.066,0.014 -0.087,0.043c-0.021,0.029 -0.031,0.069 -0.031,0.121c0,0.052 0.01,0.093 0.031,0.121c0.021,0.029 0.05,0.043 0.087,0.043c0.029,0 0.053,-0.009 0.072,-0.026c0.019,-0.017 0.031,-0.044 0.035,-0.081l0.155,0.006c-0.005,0.044 -0.019,0.082 -0.042,0.115c-0.023,0.032 -0.053,0.057 -0.091,0.075c-0.037,0.018 -0.081,0.026 -0.129,0.026Z" style="fill-rule:nonzero;"/></g><g transform="matrix(72,0,0,72,342.436099,75.56)"><path d="M0.307,0.012c-0.055,0 -0.102,-0.012 -0.143,-0.035c-0.041,-0.023 -0.072,-0.056 -0.094,-0.098c-0.022,-0.042 -0.033,-0.091 -0.033,-0.148c0,-0.056 0.011,-0.105 0.033,-0.147c0.022,-0.042 0.054,-0.074 0.094,-0.098c0.04,-0.023 0.088,-0.035 0.142,-0.035c0.053,0 0.1,0.012 0.139,0.035c0.04,0.023 0.07,0.057 0.092,0.1c0.021,0.043 0.032,0.095 0.032,0.155l0,0.03l-0.377,0c0.002,0.042 0.014,0.074 0.035,0.095c0.021,0.021 0.049,0.031 0.083,0.031c0.025,0 0.047,-0.005 0.064,-0.016c0.017,-0.011 0.029,-0.027 0.036,-0.049l0.151,0.009c-0.014,0.054 -0.044,0.096 -0.089,0.126c-0.045,0.03 -0.1,0.045 -0.164,0.045Zm-0.115,-0.332l0.223,0c-0.002,-0.039 -0.013,-0.069 -0.033,-0.088c-0.02,-0.019 -0.045,-0.029 -0.077,-0.029c-0.031,0 -0.057,0.01 -0.077,0.031c-0.02,0.02 -0.033,0.049 -0.037,0.087Z" style="fill-rule:nonzero;"/></g><g transform="matrix(72,0,0,72,386.024769,75.56)"></g><g transform="matrix(72,0,0,72,402.469632,75.56)"><path d="M0.074,-0l0,-0.71l0.494,0l0,0.128l-0.342,0l0,0.163l0.33,0l0,0.126l-0.33,0l0,0.165l0.35,0l0,0.128l-0.502,-0Z" style="fill-rule:nonzero;"/></g><g transform="matrix(72,0,0,72,447.224777,75.56)"><path d="M0.066,-0l0,-0.536l0.135,0l0.006,0.157l-0.018,-0.005c0.005,-0.04 0.016,-0.072 0.032,-0.096c0.016,-0.024 0.037,-0.041 0.061,-0.052c0.024,-0.011 0.051,-0.016 0.081,-0.016c0.039,0 0.072,0.008 0.099,0.025c0.027,0.017 0.048,0.04 0.062,0.071c0.014,0.03 0.022,0.066 0.022,0.107l0,0.345l-0.15,-0l0,-0.295c0,-0.029 -0.002,-0.053 -0.007,-0.073c-0.005,-0.02 -0.013,-0.035 -0.025,-0.046c-0.012,-0.01 -0.029,-0.016 -0.05,-0.016c-0.031,0 -0.055,0.012 -0.072,0.035c-0.017,0.023 -0.025,0.056 -0.025,0.1l0,0.295l-0.15,-0Z" style="fill-rule:nonzero;"/></g><g transform="matrix(72,0,0,72,490.280689,75.56)"><path d="M0.306,0.162c-0.051,0 -0.094,-0.006 -0.129,-0.019c-0.034,-0.013 -0.062,-0.03 -0.082,-0.053c-0.02,-0.023 -0.034,-0.049 -0.043,-0.078l0.154,-0.011c0.006,0.017 0.016,0.031 0.03,0.041c0.015,0.01 0.038,0.015 0.069,0.015c0.036,0 0.063,-0.008 0.082,-0.025c0.019,-0.017 0.029,-0.044 0.029,-0.081l0,-0.058c-0.013,0.025 -0.033,0.045 -0.061,0.06c-0.028,0.015 -0.059,0.023 -0.094,0.023c-0.044,-0 -0.083,-0.011 -0.117,-0.032c-0.034,-0.022 -0.061,-0.052 -0.08,-0.091c-0.019,-0.039 -0.029,-0.085 -0.029,-0.137c0,-0.051 0.009,-0.097 0.028,-0.136c0.019,-0.039 0.045,-0.07 0.079,-0.093c0.034,-0.022 0.072,-0.034 0.116,-0.034c0.039,0 0.073,0.009 0.1,0.026c0.027,0.017 0.047,0.04 0.061,0.069l0,-0.083l0.147,0l0,0.483c0,0.048 -0.011,0.088 -0.033,0.119c-0.022,0.032 -0.053,0.056 -0.092,0.072c-0.039,0.016 -0.085,0.024 -0.137,0.024Zm-0.001,-0.298c0.035,-0 0.062,-0.013 0.082,-0.04c0.02,-0.027 0.031,-0.064 0.031,-0.111c0,-0.031 -0.004,-0.058 -0.013,-0.081c-0.009,-0.023 -0.022,-0.04 -0.039,-0.052c-0.017,-0.012 -0.037,-0.018 -0.061,-0.018c-0.036,0 -0.064,0.014 -0.084,0.041c-0.02,0.027 -0.03,0.064 -0.03,0.11c0,0.046 0.01,0.083 0.031,0.11c0.021,0.027 0.048,0.041 0.083,0.041Z" style="fill-rule:nonzero;"/></g><g transform="matrix(72,0,0,72,535.323773,75.56)"><path d="M0.066,-0l0,-0.536l0.15,0l0,0.536l-0.15,-0Zm-0.003,-0.602l0,-0.12l0.155,0l0,0.12l-0.155,0Z" style="fill-rule:nonzero;"/></g><g transform="matrix(72,0,0,72,556.074064,75.56)"><path d="M0.066,-0l0,-0.536l0.135,0l0.006,0.157l-0.018,-0.005c0.005,-0.04 0.016,-0.072 0.032,-0.096c0.016,-0.024 0.037,-0.041 0.061,-0.052c0.024,-0.011 0.051,-0.016 0.081,-0.016c0.039,0 0.072,0.008 0.099,0.025c0.027,0.017 0.048,0.04 0.062,0.071c0.014,0.03 0.022,0.066 0.022,0.107l0,0.345l-0.15,-0l0,-0.295c0,-0.029 -0.002,-0.053 -0.007,-0.073c-0.005,-0.02 -0.013,-0.035 -0.025,-0.046c-0.012,-0.01 -0.029,-0.016 -0.05,-0.016c-0.031,0 -0.055,0.012 -0.072,0.035c-0.017,0.023 -0.025,0.056 -0.025,0.1l0,0.295l-0.15,-0Z" style="fill-rule:nonzero;"/></g><g transform="matrix(72,0,0,72,599.129977,75.56)"><path d="M0.307,0.012c-0.055,0 -0.102,-0.012 -0.143,-0.035c-0.041,-0.023 -0.072,-0.056 -0.094,-0.098c-0.022,-0.042 -0.033,-0.091 -0.033,-0.148c0,-0.056 0.011,-0.105 0.033,-0.147c0.022,-0.042 0.054,-0.074 0.094,-0.098c0.04,-0.023 0.088,-0.035 0.142,-0.035c0.053,0 0.1,0.012 0.139,0.035c0.04,0.023 0.07,0.057 0.092,0.1c0.021,0.043 0.032,0.095 0.032,0.155l0,0.03l-0.377,0c0.002,0.042 0.014,0.074 0.035,0.095c0.021,0.021 0.049,0.031 0.083,0.031c0.025,0 0.047,-0.005 0.064,-0.016c0.017,-0.011 0.029,-0.027 0.036,-0.049l0.151,0.009c-0.014,0.054 -0.044,0.096 -0.089,0.126c-0.045,0.03 -0.1,0.045 -0.164,0.045Zm-0.115,-0.332l0.223,0c-0.002,-0.039 -0.013,-0.069 -0.033,-0.088c-0.02,-0.019 -0.045,-0.029 -0.077,-0.029c-0.031,0 -0.057,0.01 -0.077,0.031c-0.02,0.02 -0.033,0.049 -0.037,0.087Z" style="fill-rule:nonzero;"/></g><g transform="matrix(72,0,0,72,641.998646,75.56)"><path d="M0.307,0.012c-0.055,0 -0.102,-0.012 -0.143,-0.035c-0.041,-0.023 -0.072,-0.056 -0.094,-0.098c-0.022,-0.042 -0.033,-0.091 -0.033,-0.148c0,-0.056 0.011,-0.105 0.033,-0.147c0.022,-0.042 0.054,-0.074 0.094,-0.098c0.04,-0.023 0.088,-0.035 0.142,-0.035c0.053,0 0.1,0.012 0.139,0.035c0.04,0.023 0.07,0.057 0.092,0.1c0.021,0.043 0.032,0.095 0.032,0.155l0,0.03l-0.377,0c0.002,0.042 0.014,0.074 0.035,0.095c0.021,0.021 0.049,0.031 0.083,0.031c0.025,0 0.047,-0.005 0.064,-0.016c0.017,-0.011 0.029,-0.027 0.036,-0.049l0.151,0.009c-0.014,0.054 -0.044,0.096 -0.089,0.126c-0.045,0.03 -0.1,0.045 -0.164,0.045Zm-0.115,-0.332l0.223,0c-0.002,-0.039 -0.013,-0.069 -0.033,-0.088c-0.02,-0.019 -0.045,-0.029 -0.077,-0.029c-0.031,0 -0.057,0.01 -0.077,0.031c-0.02,0.02 -0.033,0.049 -0.037,0.087Z" style="fill-rule:nonzero;"/></g><g transform="matrix(72,0,0,72,684.867316,75.56)"><path d="M0.066,-0l0,-0.536l0.142,0l0.005,0.156l-0.012,-0.002c0.009,-0.054 0.024,-0.093 0.046,-0.117c0.022,-0.024 0.053,-0.036 0.092,-0.036l0.048,0l0,0.124l-0.049,0c-0.028,0 -0.051,0.004 -0.069,0.011c-0.018,0.007 -0.032,0.019 -0.041,0.035c-0.009,0.016 -0.014,0.037 -0.014,0.064l0,0.301l-0.15,-0Z" style="fill-rule:nonzero;"/></g><g transform="matrix(72,0,0,72,715.438383,75.56)"></g></svg>