<?xml version="1.0" encoding="UTF-8" standalone="no"?><!DOCTYPE svg PUBLIC "-//W3C//DTD SVG 1.1//EN" "http://www.w3.org/Graphics/SVG/1.1/DTD/svg11.dtd"><svg width="100%" height="100%" viewBox="0 0 387 100" version="1.1" xmlns="http://www.w3.org/2000/svg" xmlns:xlink="http://www.w3.org/1999/xlink" xml:space="preserve" xmlns:serif="http://www.serif.com/" style="fill-rule:evenodd;clip-rule:evenodd;stroke-linejoin:round;stroke-miterlimit:2;"><rect id="Logo" x="0" y="0" width="386.08" height="100" style="fill:none;"/><path d="M23.547,32.666c-0.18,-0.019 -0.363,-0.028 -0.549,-0.028c-6.612,-0 -11.981,5.368 -11.981,11.981c-0,12.552 10.191,22.743 22.743,22.743c10.67,0 20.904,-4.239 28.449,-11.784l7.791,7.791c-9.611,9.611 -22.647,15.011 -36.239,15.011c-18.633,0 -33.761,-15.128 -33.761,-33.761c-0,-12.693 10.305,-22.998 22.998,-22.998c8.98,0 16.271,7.291 16.271,16.271c0,6.753 -5.482,12.235 -12.235,12.235c-5.268,0 -9.545,-4.277 -9.545,-9.545c0,-3.784 2.569,-6.973 6.057,-7.916Z"/><g transform="matrix(72,0,0,72,75,75.56)"><path d="M0.074,-0l0,-0.71l0.494,0l0,0.128l-0.342,0l0,0.163l0.33,0l0,0.126l-0.33,0l0,0.165l0.35,0l0,0.128l-0.502,-0Z" style="fill-rule:nonzero;"/></g><g transform="matrix(72,0,0,72,119.755146,75.56)"><path d="M0.066,-0l0,-0.536l0.135,0l0.006,0.157l-0.018,-0.005c0.005,-0.04 0.016,-0.072 0.032,-0.096c0.016,-0.024 0.037,-0.041 0.061,-0.052c0.024,-0.011 0.051,-0.016 0.081,-0.016c0.039,0 0.072,0.008 0.099,0.025c0.027,0.017 0.048,0.04 0.062,0.071c0.014,0.03 0.022,0.066 0.022,0.107l0,0.345l-0.15,-0l0,-0.295c0,-0.029 -0.002,-0.053 -0.007,-0.073c-0.005,-0.02 -0.013,-0.035 -0.025,-0.046c-0.012,-0.01 -0.029,-0.016 -0.05,-0.016c-0.031,0 -0.055,0.012 -0.072,0.035c-0.017,0.023 -0.025,0.056 -0.025,0.1l0,0.295l-0.15,-0Z" style="fill-rule:nonzero;"/></g><g transform="matrix(72,0,0,72,162.811058,75.56)"><path d="M0.306,0.162c-0.051,0 -0.094,-0.006 -0.129,-0.019c-0.034,-0.013 -0.062,-0.03 -0.082,-0.053c-0.02,-0.023 -0.034,-0.049 -0.043,-0.078l0.154,-0.011c0.006,0.017 0.016,0.031 0.03,0.041c0.015,0.01 0.038,0.015 0.069,0.015c0.036,0 0.063,-0.008 0.082,-0.025c0.019,-0.017 0.029,-0.044 0.029,-0.081l0,-0.058c-0.013,0.025 -0.033,0.045 -0.061,0.06c-0.028,0.015 -0.059,0.023 -0.094,0.023c-0.044,-0 -0.083,-0.011 -0.117,-0.032c-0.034,-0.022 -0.061,-0.052 -0.08,-0.091c-0.019,-0.039 -0.029,-0.085 -0.029,-0.137c0,-0.051 0.009,-0.097 0.028,-0.136c0.019,-0.039 0.045,-0.07 0.079,-0.093c0.034,-0.022 0.072,-0.034 0.116,-0.034c0.039,0 0.073,0.009 0.1,0.026c0.027,0.017 0.047,0.04 0.061,0.069l0,-0.083l0.147,0l0,0.483c0,0.048 -0.011,0.088 -0.033,0.119c-0.022,0.032 -0.053,0.056 -0.092,0.072c-0.039,0.016 -0.085,0.024 -0.137,0.024Zm-0.001,-0.298c0.035,-0 0.062,-0.013 0.082,-0.04c0.02,-0.027 0.031,-0.064 0.031,-0.111c0,-0.031 -0.004,-0.058 -0.013,-0.081c-0.009,-0.023 -0.022,-0.04 -0.039,-0.052c-0.017,-0.012 -0.037,-0.018 -0.061,-0.018c-0.036,0 -0.064,0.014 -0.084,0.041c-0.02,0.027 -0.03,0.064 -0.03,0.11c0,0.046 0.01,0.083 0.031,0.11c0.021,0.027 0.048,0.041 0.083,0.041Z" style="fill-rule:nonzero;"/></g><g transform="matrix(72,0,0,72,207.854142,75.56)"><path d="M0.066,-0l0,-0.536l0.15,0l0,0.536l-0.15,-0Zm-0.003,-0.602l0,-0.12l0.155,0l0,0.12l-0.155,0Z" style="fill-rule:nonzero;"/></g><g transform="matrix(72,0,0,72,228.604433,75.56)"><path d="M0.066,-0l0,-0.536l0.135,0l0.006,0.157l-0.018,-0.005c0.005,-0.04 0.016,-0.072 0.032,-0.096c0.016,-0.024 0.037,-0.041 0.061,-0.052c0.024,-0.011 0.051,-0.016 0.081,-0.016c0.039,0 0.072,0.008 0.099,0.025c0.027,0.017 0.048,0.04 0.062,0.071c0.014,0.03 0.022,0.066 0.022,0.107l0,0.345l-0.15,-0l0,-0.295c0,-0.029 -0.002,-0.053 -0.007,-0.073c-0.005,-0.02 -0.013,-0.035 -0.025,-0.046c-0.012,-0.01 -0.029,-0.016 -0.05,-0.016c-0.031,0 -0.055,0.012 -0.072,0.035c-0.017,0.023 -0.025,0.056 -0.025,0.1l0,0.295l-0.15,-0Z" style="fill-rule:nonzero;"/></g><g transform="matrix(72,0,0,72,271.660345,75.56)"><path d="M0.307,0.012c-0.055,0 -0.102,-0.012 -0.143,-0.035c-0.041,-0.023 -0.072,-0.056 -0.094,-0.098c-0.022,-0.042 -0.033,-0.091 -0.033,-0.148c0,-0.056 0.011,-0.105 0.033,-0.147c0.022,-0.042 0.054,-0.074 0.094,-0.098c0.04,-0.023 0.088,-0.035 0.142,-0.035c0.053,0 0.1,0.012 0.139,0.035c0.04,0.023 0.07,0.057 0.092,0.1c0.021,0.043 0.032,0.095 0.032,0.155l0,0.03l-0.377,0c0.002,0.042 0.014,0.074 0.035,0.095c0.021,0.021 0.049,0.031 0.083,0.031c0.025,0 0.047,-0.005 0.064,-0.016c0.017,-0.011 0.029,-0.027 0.036,-0.049l0.151,0.009c-0.014,0.054 -0.044,0.096 -0.089,0.126c-0.045,0.03 -0.1,0.045 -0.164,0.045Zm-0.115,-0.332l0.223,0c-0.002,-0.039 -0.013,-0.069 -0.033,-0.088c-0.02,-0.019 -0.045,-0.029 -0.077,-0.029c-0.031,0 -0.057,0.01 -0.077,0.031c-0.02,0.02 -0.033,0.049 -0.037,0.087Z" style="fill-rule:nonzero;"/></g><g transform="matrix(72,0,0,72,314.529015,75.56)"><path d="M0.307,0.012c-0.055,0 -0.102,-0.012 -0.143,-0.035c-0.041,-0.023 -0.072,-0.056 -0.094,-0.098c-0.022,-0.042 -0.033,-0.091 -0.033,-0.148c0,-0.056 0.011,-0.105 0.033,-0.147c0.022,-0.042 0.054,-0.074 0.094,-0.098c0.04,-0.023 0.088,-0.035 0.142,-0.035c0.053,0 0.1,0.012 0.139,0.035c0.04,0.023 0.07,0.057 0.092,0.1c0.021,0.043 0.032,0.095 0.032,0.155l0,0.03l-0.377,0c0.002,0.042 0.014,0.074 0.035,0.095c0.021,0.021 0.049,0.031 0.083,0.031c0.025,0 0.047,-0.005 0.064,-0.016c0.017,-0.011 0.029,-0.027 0.036,-0.049l0.151,0.009c-0.014,0.054 -0.044,0.096 -0.089,0.126c-0.045,0.03 -0.1,0.045 -0.164,0.045Zm-0.115,-0.332l0.223,0c-0.002,-0.039 -0.013,-0.069 -0.033,-0.088c-0.02,-0.019 -0.045,-0.029 -0.077,-0.029c-0.031,0 -0.057,0.01 -0.077,0.031c-0.02,0.02 -0.033,0.049 -0.037,0.087Z" style="fill-rule:nonzero;"/></g><g transform="matrix(72,0,0,72,357.397685,75.56)"><path d="M0.066,-0l0,-0.536l0.142,0l0.005,0.156l-0.012,-0.002c0.009,-0.054 0.024,-0.093 0.046,-0.117c0.022,-0.024 0.053,-0.036 0.092,-0.036l0.048,0l0,0.124l-0.049,0c-0.028,0 -0.051,0.004 -0.069,0.011c-0.018,0.007 -0.032,0.019 -0.041,0.035c-0.009,0.016 -0.014,0.037 -0.014,0.064l0,0.301l-0.15,-0Z" style="fill-rule:nonzero;"/></g><g transform="matrix(72,0,0,72,387.968751,75.56)"></g></svg>